Patient5_TMGait_0pt45_1_left_14_EMG.mot
version=1
nRows=36
nColumns=33
inDegrees=no
endheader
time	1LAddLong	2LGlutMax	3LGlutMed	4LIliopsoas	5LSemiMemb	6LBicFemLong	7LRecFem	8LTensFascLat	9LVastMed	10LVasLat	11LGasMed	12lGasLat	13LTibAnt	14LPeroneusLong	15LSol	16LTibPost	17RAddLong	18RGlutMax	19RGlutMed	20RIliopsoas	21RSemiMemb	22RBicFemLong	23RRecFem	24RTensFascLat	25RVastMed	26RVasLat	27RGasMed	28RGasLat	29RTibAnt	30RPeroneusLong	31RSol	32RTibPost
23.64	-0.057068	-0.003204	0.000153	-0.024109	0.00824	0.025787	0.010834	-0.086975	-0.009308	-0.003357	-0.009308	-0.001068	0.093231	-0.001984	0.001831	0.032806	0.008698	-0.030212	0.51117	-0.13748	0.018311	0.14481	-0.016327	0.21027	0.024872	0.029602	-0.035095	-0.055695	-0.014038	0.00412	-0.063934	0.00946
23.641	-0.036316	0.00473	0.01358	-0.062256	-0.003204	0.032501	0.011902	-0.10849	-0.011597	-0.012207	-0.018768	0.005035	0.059509	0.003815	0.003967	0.097809	0.004272	-0.027008	0.61325	-0.090942	0.045776	-0.012817	-0.016785	0.036926	-0.010376	-0.006714	-0.020142	-0.047607	-0.011597	-0.003967	-0.057373	0.005035
23.642	-0.087891	0.001068	0.006409	-0.015106	-0.007782	0.013275	0.014496	-0.12711	-0.009766	-0.007782	-0.00473	0.006561	0.010986	0.010071	-0.004578	-0.070496	0.005035	-0.021362	0.39123	0.013275	0.043793	-0.13336	-0.007324	-0.11597	-0.013428	-0.031281	-0.010986	0.009613	-0.009766	0.002747	-0.055847	-0.006256
23.643	-0.04425	0.004272	0.006256	0.069885	-0.010376	0.000153	0.024414	-0.15472	-0.00473	-0.012817	0.004578	0.005035	-0.021515	0.010376	0.001678	-0.044708	-0.006409	-0.009918	-0.020752	0.03006	0.034332	-0.070343	-0.003357	-0.007629	-0.011597	-0.007782	-0.001984	0.000763	-0.002441	0.010681	-0.056915	-0.008392
23.644	-0.035095	0.006866	0.041962	0.064697	-0.022278	0.006104	0.019531	-0.1474	-0.002289	-0.01236	-0.002594	0.010223	-0.03952	0.017242	-0.000763	0.12039	-0.008545	0.000916	-0.26489	-0.11505	0.04303	-0.037231	0.006104	0.18967	-0.016327	-0.001068	-0.003967	-0.014801	0.015717	0.018311	-0.054474	-0.005493
23.645	-0.032654	0.003204	0.055389	0.045624	-0.027313	0.023804	0.017548	-0.19134	-0.011444	-0.018158	0.006104	0.00824	0.02655	0.004272	0.007629	0.13504	0.00412	0.010376	-0.2829	-0.057068	0.070648	-0.20721	0.001221	0.22537	-0.005341	0.000763	0.005341	-0.014038	0.028229	0.019836	-0.055847	-0.000153
23.646	-0.05188	0.002441	0.059052	0.031738	-0.042419	0.018158	0.022125	-0.2385	-0.005188	-0.026245	0.002747	0.007324	0.039825	0.002136	0.009003	0.046692	0.009003	0.02182	-0.30746	0.04776	0.092468	-0.27969	-0.018311	0.40512	0.012817	-0.015411	-0.025482	0.04425	0.023804	0.011597	-0.05661	-0.006409
23.647	-0.017395	0.001373	0.037994	-0.024567	-0.035858	0.015411	0.011292	-0.26886	-0.00885	-0.018158	0.011902	0.006714	0.068512	0.003052	0.022583	0.13809	0.013885	0.033417	-0.46463	-0.066986	0.12604	-0.14374	-0.025787	0.50552	-0.026855	0.010681	-0.008545	0.1355	0.022583	0.017395	-0.050812	-0.01709
23.648	-0.007477	-0.000458	0.053406	-0.032959	-0.011749	0.017395	-0.008087	-0.31204	-0.005493	-0.009613	0.007019	0.003967	0.066681	-0.00351	0.015259	0.2243	0.008392	0.045776	-0.32684	-0.056763	0.14923	-0.041351	-0.028687	0.38574	-0.08255	0.017395	-0.001678	0.12604	0.005188	0.00824	-0.039063	-0.022583
23.649	-0.008392	-0.004883	0.062561	-0.021973	-0.007935	0.014954	-0.007172	-0.32547	-0.002899	-0.012665	0.007629	0.009766	0.011597	0.002747	0.011292	0.13718	0.013885	0.045319	-0.13947	0.24689	0.1683	-0.045929	-0.030823	0.31235	-0.08606	-0.006104	0	-0.022583	-0.006409	-0.000763	-0.044556	-0.01297
23.65	0.016632	0.00473	0.06134	0.029602	-0.004425	0.014343	-0.008087	-0.3685	-0.002441	-0.0177	-0.001373	0.002594	0.019073	-0.009155	0.004883	0.17639	0.012665	0.03952	-0.081177	-0.18265	0.1503	-0.012665	-0.028687	0.22827	-0.057678	-0.032196	-0.01236	-0.12466	-0.004272	-0.01297	-0.048218	-0.002594
23.651	0.001984	0.001831	0.046539	0.087585	0.007935	0.012512	-0.008545	-0.40207	0.000458	-0.016785	-0.006866	-0.005341	-0.001984	-0.014343	-0.001068	0.092316	0.010529	0.035248	0.20569	0.14923	0.11581	0.029907	-0.01358	0.15274	0.005493	-0.050507	-0.033569	-0.056305	0.002747	-0.012665	-0.051575	0.002289
23.652	0.007172	0.004425	0.051575	-0.018463	-0.00061	0.016174	-0.018463	-0.42358	-0.001221	-0.016632	-0.000763	-0.009766	-0.024261	-0.022888	-0.007019	0.2182	0.00824	0.034943	0.58563	0.019531	0.076294	0.09964	0.006104	0.11627	0.071716	-0.013733	-0.02243	-0.00824	0.007019	0.000153	-0.053711	-0.014954
23.653	0.016022	0.003815	0.028839	0.002136	0.005035	0.007019	-0.025635	-0.53192	0.002747	-0.003052	-0.00473	-0.001678	-0.073547	-0.028229	0.003357	-0.039215	0.002594	0.011902	0.67413	0.15762	0.036163	0.13245	0.025787	0.050354	0.10498	0.010529	-0.016174	-0.089874	0.013428	0.005188	-0.084839	-0.046844
23.654	-0.032349	-0.001984	-0.045166	0.11704	0.0177	0.015717	-0.025177	-0.68237	-0.002136	-0.002747	0.003052	-0.003052	-0.043182	-0.028076	0.002899	0.22034	0.005493	-0.020447	0.68176	-0.00824	0.013885	0.083466	0.018158	0.013275	0.12375	0.030518	-0.013733	-0.10101	0.010529	0.006256	-0.065002	-0.11795
23.655	-0.11673	0.003815	-0.051727	0.177	0.02182	0.010071	-0.017548	-0.72876	0.002747	-0.007629	-0.00885	0.003967	0.11566	-0.013733	-0.000763	0.24414	0.005341	-0.039978	0.54352	-0.038605	0.016632	0.0177	0.021057	0.077515	0.13184	0.007324	-0.022583	-0.12299	-0.00473	0.003204	-0.032806	-0.049591
23.656	-0.103	0.000458	-0.053558	-0.18463	0.028839	0.019226	-0.006561	-0.70023	0.003204	-0.014648	0.001831	-0.001221	0.15579	-0.00473	-0.00061	0.14648	0.011902	-0.059509	-0.2092	0.057068	0.006256	-0.02533	0.033569	0.26504	0.082703	-0.015869	-0.029297	-0.12024	-0.007324	0.015869	-0.029449	-0.011139
23.657	-0.42328	-0.000305	-0.041504	-0.072021	0.021973	0.020447	0.002441	-0.68253	0.006866	-0.013428	0.00824	0.00351	0.09964	0.005951	-0.00351	0.11078	-0.001678	-0.059204	-0.88257	0.21744	0.062866	-0.003815	0.023193	0.24994	0.07431	-0.08194	-0.032043	-0.053864	-0.002441	0.012512	0.009613	0.023499
23.658	-0.31021	0.001373	-0.041962	0.00061	0.022583	0.017395	0.001831	-0.70404	0.005341	-0.014343	-0.008698	0.008698	0.056152	0.006104	-0.00351	0.11292	-0.003357	-0.050354	-0.82687	-0.10864	0.096893	-0.049744	0.017548	0.25284	0.054321	-0.068359	-0.029144	0.059052	-0.001068	0.019073	0.009613	0.10193
23.659	-0.15182	0.005798	-0.024719	-0.032959	0.022278	0.00473	0.01297	-0.71838	0.009003	-0.008392	-0.006256	0.005646	0.025482	-0.001984	-0.017395	0.16174	0.001984	-0.032806	-0.97824	0.04715	0.21378	-0.12543	0.014496	0.25696	-0.012665	-0.015564	-0.032654	0.12253	0.001221	0.020752	-0.025635	0.14725
23.66	-0.047913	0.002747	0.016937	-0.035858	0.024109	0.009003	0.016327	-0.69733	0.010376	-0.009613	-0.014343	-0.004272	0.032959	-0.005646	-0.016479	0.1973	0.004272	-0.007782	-0.84915	0.05661	0.30334	-0.15213	0.012054	0.21378	-0.069427	-0.026245	-0.01709	0.15305	-0.002899	0.01297	-0.06073	0.006866
23.661	0.018158	0.005493	0.034027	-0.009766	0.031433	0.014648	0.027771	-0.68085	0.00824	-0.007019	-0.018005	0.005188	0.017242	0.003967	-0.007629	0.069275	0.003662	0.018921	-0.66788	0.096283	0.13336	-0.099182	0.012512	0.12283	-0.075684	-0.083771	-0.000763	0.063934	-0.00061	0.00824	-0.084839	0.080566
23.662	0.053864	0.007172	0.043793	-0.018921	0.009918	0.015564	0.033264	-0.65536	0.007172	-0.012512	-0.009003	0.009155	0.041504	0.004272	-0.011292	0.015259	0.006409	0.023956	-0.31845	-0.010834	0.030518	-0.07019	0.011749	0.073395	-0.032349	-0.073242	0.005341	0.030975	0.003204	0.007324	-0.10269	0.10971
23.663	0.072021	0.007172	0.060425	-0.010834	0.021362	0.022583	0.034332	-0.62759	0.010071	-0.018463	-0.00946	0.015869	0.048676	0.008698	-0.018921	0.02533	0.003967	0.032196	-0.14664	-0.015564	0.0383	-0.076294	0.014801	-0.000763	-0.018768	-0.005951	-0.00824	0.056763	-0.003662	-0.001221	-0.089874	0.002136
23.664	0.079803	0.006409	0.045013	0.014954	0.01297	0.02121	0.028687	-0.57388	0.003357	-0.011444	-0.019684	0.028076	0.046234	0.003357	-0.018158	-0.16342	0.003967	0.032043	-0.059662	0.032806	0.014038	0.004425	0.021515	-0.058899	0.021973	0.016174	-0.032806	0.13794	-0.001984	-0.007935	-0.056152	-0.089722
23.665	0.079651	-0.001831	0.018921	0.010681	-0.000153	0.02121	0.032654	-0.51376	-0.006714	-0.007324	-0.027161	0.030518	0.049896	0.008392	-0.007629	-0.10071	0.00061	0.032806	-0.081635	0.027008	-0.038452	0.048218	0.028381	-0.10651	0.014038	-0.010071	-0.10742	0.26947	-0.000916	-0.015106	-0.017395	-0.084991
23.666	0.076752	-0.002747	0.036469	0.014343	0.016174	0.025177	0.037537	-0.44754	-0.00824	-0.013275	-0.019989	0.028839	0.023193	0.002136	-0.002899	-0.059357	0.00351	0.022888	0.070343	0.015106	0.004578	0.016632	0.019684	-0.12726	0.044403	0.016022	-0.054016	0.11932	-0.006256	-0.021362	0.040588	0.054626
23.667	0.069733	-0.001678	0.023041	0.033875	0.000153	0.022583	0.012665	-0.37811	0.009155	-0.018616	-0.011139	0.005035	0.030518	0.000153	0.003357	0.074921	0.003204	0.027618	0.19775	-0.075989	0.08316	-0.042114	0.006256	-0.13138	0.048065	-0.059509	-0.00885	-0.14877	-0.003052	-0.014954	0.044861	-0.11276
23.668	0.071106	0.003204	-0.031433	-0.028992	0.004272	0.03479	-0.010071	-0.3421	0.010376	-0.013885	0.018311	0.003967	0.007782	-0.00885	0.002747	0.028687	0.002594	0.024872	0.058441	0.016632	0.12741	-0.10574	-0.000916	-0.11749	0.037842	-0.11597	0.016174	-0.11536	0.002899	0.020294	0.005646	-0.2092
23.669	0.09552	0.002136	-0.071259	-0.13092	0.004883	0.029907	-0.014191	-0.30151	0.010681	-0.004578	0.037079	0.02594	-0.06424	-0.014954	0.005493	0.023804	0.003662	0.022278	0.065308	0.010223	0.10605	-0.098419	-0.009003	-0.15869	0.05127	-0.10284	0.048218	-0.00946	0.007172	0.023956	-0.02243	-0.15778
23.67	0.062561	0.002441	-0.044403	-0.13916	0.010529	0.014191	-0.017853	-0.1944	0.007935	-0.003662	0.00824	-0.00824	-0.078735	-0.016022	0.011444	-0.076141	-0.000916	0.019989	0.18402	0.046234	-0.015869	-0.10757	-0.008545	-0.26779	0.025024	-0.045929	0.058136	0.043335	0.00351	0.023041	-0.037079	-0.03067
23.671	0.03418	0.003204	-0.019836	-0.070038	0.007629	0.000153	-0.019073	-0.099335	-0.007782	-0.001221	0.00412	-0.046234	-0.079041	-0.018005	0.006866	0.049133	0.007629	0.015564	0.43488	0.063629	-0.091553	-0.077667	-0.01236	-0.35263	-0.001221	0.13779	0.045776	0.068359	0.001373	0.055237	-0.050354	-0.038605
23.672	0.027771	0.005035	-0.016174	-0.05188	-0.013275	0.013428	-0.028992	0.001984	-0.022888	-0.005341	0.014038	-0.036926	-0.060272	-0.021057	0.011902	-0.042877	0.000916	0.007629	0.63232	0.0737	-0.006409	0.1004	-0.016785	-0.35584	-0.021362	0.11993	0.004578	0.006104	0.00061	0.058594	-0.02533	-0.03006
23.673	0.035706	0.004272	0.035858	-0.003662	-0.005493	0.011597	-0.042419	0.093079	-0.023804	-0.007019	0.006409	-0.028839	-0.03418	-0.018311	0.005188	-0.037994	0.003357	-0.016937	0.77209	-0.10025	0.07843	0.11536	-0.011139	-0.31937	-0.010071	0.047913	-0.040131	-0.15259	0.012054	0.044098	-0.016174	-0.017853
23.674	0.007629	0.005493	0.056305	0.0177	-0.001984	0.005646	-0.025787	0.16327	-0.016785	-0.005188	-0.001373	-0.018311	-0.067749	-0.00885	-0.00351	-0.096893	0.001221	-0.041199	0.83756	-0.16342	0.1004	0.095825	0.011597	-0.32074	-0.021667	0.03418	-0.023804	-0.33157	0.009613	0.029449	-0.023193	0.007629
23.675	0.041199	0.004425	0.04837	0.016785	0.011902	0.014343	-0.019836	0.21439	-0.013428	-0.003967	0.013733	-0.024872	-0.070343	-0.028534	-0.004272	-0.070953	-0.002747	-0.04837	0.58807	-0.17578	0.11063	0.063934	0.010223	-0.26413	-0.031281	0.020752	-0.007324	-0.43167	0.006714	0.01297	-0.027313	0.025177
